<?xml version="1.0" encoding="UTF-8" standalone="no"?><!DOCTYPE svg PUBLIC "-//W3C//DTD SVG 1.1//EN" "http://www.w3.org/Graphics/SVG/1.1/DTD/svg11.dtd"><svg width="100%" height="100%" viewBox="0 0 123 180" version="1.1" xmlns="http://www.w3.org/2000/svg" xmlns:xlink="http://www.w3.org/1999/xlink" xml:space="preserve" xmlns:serif="http://www.serif.com/" style="fill-rule:evenodd;clip-rule:evenodd;stroke-linejoin:round;stroke-miterlimit:2;"><g><rect x="51.197" y="119.366" width="20.243" height="29.841"/><rect x="51.197" y="149.349" width="20.243" height="29.841"/><rect x="51.197" y="89.524" width="20.243" height="29.841"/><rect x="51.197" y="59.683" width="20.243" height="29.841"/><rect x="51.197" y="29.841" width="20.243" height="29.841"/><rect x="51.197" y="0" width="20.243" height="29.841"/><g><path d="M40.486,29.841l-14.423,0c-3.214,0 -5.82,2.606 -5.82,5.821c-0,8.683 -0,24.021 -0,24.021l16.024,-0c1.119,-0 2.192,-0.444 2.983,-1.236c0.791,-0.791 1.236,-1.864 1.236,-2.983c-0,-8.228 -0,-25.623 -0,-25.623Z"/><path d="M81.561,29.841l14.423,0c3.214,0 5.82,2.606 5.82,5.821c0,8.683 0,24.021 0,24.021l-16.024,-0c-1.119,-0 -2.192,-0.444 -2.983,-1.236c-0.791,-0.791 -1.236,-1.864 -1.236,-2.983c0,-8.228 0,-25.623 0,-25.623Z"/><path d="M60.729,0l-14.423,0c-3.214,-0 -5.82,2.606 -5.82,5.82c-0,8.684 -0,24.021 -0,24.021l20.243,0l-0,-29.841Z"/><path d="M61.336,0l14.423,0c3.214,-0 5.82,2.606 5.82,5.82c-0,8.684 -0,24.021 -0,24.021l-20.243,0l-0,-29.841Z"/><path d="M20.243,59.683l-14.423,-0c-3.214,-0 -5.82,2.606 -5.82,5.82c-0,8.684 -0,24.021 -0,24.021l16.024,0c1.119,0 2.192,-0.444 2.983,-1.235c0.791,-0.791 1.236,-1.864 1.236,-2.983c-0,-8.228 -0,-25.623 -0,-25.623Z"/><path d="M101.804,59.683l14.423,-0c3.214,-0 5.82,2.606 5.82,5.82c0,8.684 0,24.021 0,24.021l-16.024,0c-1.119,0 -2.192,-0.444 -2.983,-1.235c-0.791,-0.791 -1.236,-1.864 -1.236,-2.983c0,-8.228 0,-25.623 0,-25.623Z"/></g></g></svg>